<svg width="110" height="110" viewBox="0 0 110 110" fill="none" xmlns="http://www.w3.org/2000/svg">
<path d="M2.3094 57C1.59487 55.7624 1.59487 54.2376 2.3094 53L26.9226 10.3686C27.6372 9.131 28.9577 8.36861 30.3868 8.36861H79.6133C81.0423 8.36861 82.3628 9.131 83.0773 10.3686L107.691 53C108.405 54.2376 108.405 55.7624 107.691 57L83.0773 99.6314C82.3628 100.869 81.0423 101.631 79.6133 101.631H30.3867C28.9577 101.631 27.6372 100.869 26.9227 99.6314L2.3094 57Z" fill="url(#paint0_linear_3402_156)" stroke="white" stroke-width="2"/>
<path d="M44.021 58.2651L55.0229 61.9706" stroke="white" stroke-width="4" stroke-linecap="round"/>
<path d="M42.8032 72.9331H59.4828" stroke="white" stroke-width="5" stroke-linecap="round"/>
<path d="M48.4971 37.0669L59.499 40.7724" stroke="white" stroke-width="4" stroke-linecap="round"/>
<path d="M54.3777 61.6608L44.9229 58.2653L48.0745 41.2876C49.2751 41.6649 51.7663 42.4195 52.1265 42.4195C52.5767 42.4195 53.9274 42.4195 53.027 39.5898L58.88 41.2876L57.58 47.1699C58.9732 47.5279 59.703 49.7282 59.703 49.7282C65.4103 51.6776 76.9444 55.611 77.4216 55.7494C78.0181 55.9224 79.007 57.1852 78.2143 59.2968C77.7137 60.6304 76.7583 60.3949 76.1984 60.1978L58.7268 54.3696C58.3607 54.7267 57.277 55.3338 55.8706 54.9053L54.3777 61.6608Z" fill="#FFFBFB"/>
<path d="M57.58 47.1699L58.88 41.2876L53.027 39.5898C53.9274 42.4195 52.5767 42.4195 52.1265 42.4195C51.7663 42.4195 49.2751 41.6649 48.0745 41.2876L44.9229 58.2653L54.3777 61.6608L55.8706 54.9053M57.58 47.1699C58.9732 47.5279 59.703 49.7282 59.703 49.7282C65.4103 51.6776 76.9444 55.611 77.4216 55.7494C78.0181 55.9224 79.007 57.1852 78.2143 59.2968C77.7137 60.6304 76.7583 60.3949 76.1984 60.1978L58.7268 54.3696C58.3607 54.7267 57.277 55.3338 55.8706 54.9053M57.58 47.1699L55.8706 54.9053" stroke="white"/>
<path d="M41.9657 66.7229L30.9593 72.232L38.7358 64.362L30.5098 60.2443L40.284 61.7534L36.4859 55.2944L41.5127 59.1561" stroke="white" stroke-linecap="round"/>
<defs>
<linearGradient id="paint0_linear_3402_156" x1="55" y1="0" x2="55" y2="121" gradientUnits="userSpaceOnUse">
<stop stop-color="#FF5A00"/>
<stop offset="1" stop-color="#933400"/>
</linearGradient>
</defs>
</svg>
