<svg width="110" height="110" viewBox="0 0 110 110" fill="none" xmlns="http://www.w3.org/2000/svg">
<path d="M2.3094 57C1.59487 55.7624 1.59487 54.2376 2.3094 53L26.9226 10.3686C27.6372 9.131 28.9577 8.36861 30.3868 8.36861H79.6133C81.0423 8.36861 82.3628 9.131 83.0773 10.3686L107.691 53C108.405 54.2376 108.405 55.7624 107.691 57L83.0773 99.6314C82.3628 100.869 81.0423 101.631 79.6133 101.631H30.3867C28.9577 101.631 27.6372 100.869 26.9227 99.6314L2.3094 57Z" fill="url(#paint0_linear_3429_253)" stroke="white" stroke-width="2"/>
<path d="M39.9179 55.5208C38.9668 51.0858 39.1027 42.9985 53.7772 40.6506C63.7242 39.0591 64.7827 36.7374 66.0056 34.3895L66.8213 43.3898L72.1205 44.9551V45.7378H71.7129L74.5662 57.4774C71.9574 59.0427 69.1312 58.1296 68.0442 57.4774L70.8976 45.7378H61.1146L63.9679 57.4774C61.3591 58.7296 58.5329 57.9991 57.4459 57.4774L60.2993 45.7378H59.4841V44.9551L65.5985 43.3898V37.4092C64.6658 40.1891 62.0472 43.3956 56.223 45.2863C55.678 45.4721 55.7955 48.1602 55.9225 49.481C55.9225 49.481 51.3315 50.0423 49.1998 49.481C49.1998 49.481 49.3045 47.7488 49.1998 47.1634C45.6481 48.4469 43.4478 50.2517 42.0607 51.9132C42.2976 52.9853 42.7714 55.3642 42.7714 56.3034L43.9942 57.086H45.6247L46.44 56.3034L47.2553 57.4774L46.44 59.0427L45.6247 58.26H43.9942L42.7714 59.0427L43.179 76.2608L41.9561 79L40.3256 76.2608V59.0427L39.5103 58.26H37.8798L37.0646 59.0427L35.4341 57.8687L37.0646 56.3034L37.8798 57.086H39.5103L40.3256 56.3034L41.0515 53.2975C40.4787 54.2035 40.1386 54.9911 39.9179 55.5208Z" fill="white"/>
<path d="M48.0705 59.434C47.1671 54.112 48.2376 51.2162 48.8858 50.4336C51.4946 51.3728 54.8643 50.8249 56.223 50.4336C57.8535 52.9381 57.1742 57.4774 56.6307 59.434C54.6741 67.5734 56.3589 75.6086 57.4459 78.6087H47.6629C50.1086 75.0868 49.1998 66.0864 48.0705 59.434Z" fill="white"/>
<path d="M48.4781 34.7808C48.4781 31.6502 54.1849 28.1283 56.6307 34.7808C55.136 34.259 51.413 33.5285 48.4781 34.7808Z" fill="white"/>
<path d="M48.4781 37.1286C49.701 39.2157 53.0436 42.1375 56.6307 37.1286C55.4078 36.7373 52.0652 36.1895 48.4781 37.1286Z" fill="white"/>
<defs>
<linearGradient id="paint0_linear_3429_253" x1="55" y1="0" x2="55" y2="121" gradientUnits="userSpaceOnUse">
<stop stop-color="#FF5A00"/>
<stop offset="1" stop-color="#933400"/>
</linearGradient>
</defs>
</svg>
