<svg width="110" height="110" viewBox="0 0 110 110" fill="none" xmlns="http://www.w3.org/2000/svg">
<path d="M2.3094 57C1.59487 55.7624 1.59487 54.2376 2.3094 53L26.9226 10.3686C27.6372 9.131 28.9577 8.36861 30.3868 8.36861H79.6133C81.0423 8.36861 82.3628 9.131 83.0773 10.3686L107.691 53C108.405 54.2376 108.405 55.7624 107.691 57L83.0773 99.6314C82.3628 100.869 81.0423 101.631 79.6133 101.631H30.3867C28.9577 101.631 27.6372 100.869 26.9227 99.6314L2.3094 57Z" fill="url(#paint0_linear_3429_244)" stroke="white" stroke-width="2"/>
<path d="M32.1482 50.7721C32.013 51.8538 31.9229 52.9535 31.9229 54.0713C31.9229 63.8971 37.3045 72.4517 45.2732 76.986L46.7606 73.849V52.4217L45.111 50.7721H32.1482ZM78.0767 52.4217C78.0767 50.772 76.4271 49.1224 74.7774 49.1224H61.5893C62.4096 45.8231 63.239 42.5329 63.239 40.8832C63.239 37.5839 61.5893 34.2937 60.769 33.4644C60.751 33.4463 59.9487 32.644 58.2991 32.644C55.8291 32.644 55.8291 35.114 55.8291 35.114C55.8291 35.1591 55.0088 39.2336 55.0088 40.8832C55.0088 42.5329 51.7095 49.1224 50.0599 50.7721L48.4102 51.5924V74.6693L50.0599 75.4896H68.1879C71.4872 75.4896 73.1368 73.84 73.1368 72.1903C73.1368 70.5407 71.4872 68.891 69.8375 68.891C73.1368 68.891 74.7864 67.2414 74.7864 65.5918C74.7864 63.9421 73.1368 62.2925 71.4872 62.2925C74.7864 62.2925 76.4361 60.6428 76.4361 58.9932C76.4361 57.3436 74.7864 55.6939 73.1368 55.6939C76.4271 55.721 78.0767 54.0713 78.0767 52.4217Z" fill="white"/>
<defs>
<linearGradient id="paint0_linear_3429_244" x1="55" y1="0" x2="55" y2="121" gradientUnits="userSpaceOnUse">
<stop stop-color="#FF5A00"/>
<stop offset="1" stop-color="#933400"/>
</linearGradient>
</defs>
</svg>
