<svg width="110" height="110" viewBox="0 0 110 110" fill="none" xmlns="http://www.w3.org/2000/svg">
<path d="M2.3094 53L26.9226 10.3686C27.6372 9.131 28.9577 8.36861 30.3868 8.36861H79.6133C81.0423 8.36861 82.3628 9.131 83.0773 10.3686L107.691 53C108.405 54.2376 108.405 55.7624 107.691 57L83.0773 99.6314C82.3628 100.869 81.0423 101.631 79.6133 101.631H30.3867C28.9577 101.631 27.6372 100.869 26.9226 99.6314L2.3094 57C1.59487 55.7624 1.59487 54.2376 2.3094 53Z" fill="url(#paint0_linear_3429_271)" stroke="white" stroke-width="2"/>
<path d="M63.6162 39.894H57.1633C56.5624 39.894 55.984 40.13 55.5408 40.5547L48.1564 47.633C48.1489 47.6409 48.1414 47.6566 48.1339 47.6645C46.8869 48.8914 46.9094 50.8498 47.9762 52.0688C48.9302 53.162 50.9359 53.453 52.1904 52.2812C52.1979 52.2733 52.2129 52.2733 52.2204 52.2654L58.2225 46.5084C58.7108 46.0443 59.4771 46.0758 59.9203 46.587C60.371 47.0982 60.3334 47.8926 59.8451 48.3645L57.8845 50.2442L68.822 59.5404C69.0399 59.7292 69.2352 59.9336 69.4155 60.146V44.9275L65.3139 40.6333C64.8707 40.1614 64.2547 39.894 63.6162 39.894ZM71.8268 44.9433V62.5526C71.8268 63.9447 72.901 65.0694 74.2307 65.0694H79.0384V44.9433H71.8268ZM75.4326 62.5526C74.7715 62.5526 74.2307 61.9864 74.2307 61.2943C74.2307 60.6021 74.7715 60.0359 75.4326 60.0359C76.0936 60.0359 76.6345 60.6021 76.6345 61.2943C76.6345 61.9864 76.0936 62.5526 75.4326 62.5526ZM30.9614 65.0615H35.7691C37.0987 65.0615 38.173 63.9368 38.173 62.5448V44.9433H30.9614V65.0615ZM34.5672 60.0359C35.2283 60.0359 35.7691 60.6021 35.7691 61.2943C35.7691 61.9864 35.2283 62.5526 34.5672 62.5526C33.9061 62.5526 33.3653 61.9864 33.3653 61.2943C33.3653 60.5943 33.9061 60.0359 34.5672 60.0359ZM67.3121 61.4987L56.0966 51.9666L53.843 54.1294C51.612 56.2608 48.194 56.0563 46.2033 53.7833C44.1826 51.4711 44.3403 47.8926 46.5338 45.7848L52.6787 39.894H46.3836C45.7451 39.894 45.1366 40.1614 44.6859 40.6333L40.5768 44.9275V62.5369H41.9515L48.7499 68.9782C50.8082 70.7321 53.8355 70.4017 55.5107 68.2468L55.5257 68.231L56.8704 69.4501C58.0648 70.4725 59.8301 70.2759 60.7992 69.0254L63.1579 65.9896L63.5636 66.3356C64.5927 67.2086 66.1102 67.0513 66.944 65.966L67.6576 65.0458C68.499 63.9604 68.3412 62.3796 67.3121 61.4987Z" fill="white"/>
<defs>
<linearGradient id="paint0_linear_3429_271" x1="55" y1="0" x2="55" y2="121" gradientUnits="userSpaceOnUse">
<stop stop-color="#FF5A00"/>
<stop offset="1" stop-color="#933400"/>
</linearGradient>
</defs>
</svg>
