<svg width="24" height="24" viewBox="0 0 24 24" fill="none" xmlns="http://www.w3.org/2000/svg">
<path fill-rule="evenodd" clip-rule="evenodd" d="M3 11.214C3 11.0652 3.09771 10.9252 3.23625 10.8727L21.2087 4.02295C21.2709 4.00001 21.338 3.99413 21.4031 4.00593C21.4683 4.01773 21.5291 4.04677 21.5792 4.09003C21.6783 4.17753 21.725 4.31899 21.6929 4.44878L18.1083 19.525C18.0941 19.5833 18.066 19.6372 18.0264 19.6821C17.9867 19.7271 17.9368 19.7617 17.8808 19.7832C17.8244 19.8037 17.7639 19.8102 17.7044 19.8021C17.645 19.794 17.5884 19.7714 17.5396 19.7365L13.7202 16.9729L13.5744 17.0692C12.9947 17.4549 12.4133 17.838 11.8302 18.2184C11.3753 18.5156 10.9169 18.8073 10.455 19.0934C10.2861 19.1976 10.1149 19.2983 9.94167 19.3952C9.87484 19.4326 9.80675 19.4676 9.7375 19.5002C9.70033 19.518 9.66238 19.5341 9.62375 19.5484C9.44298 19.608 9.24934 19.6172 9.06376 19.5748C8.87818 19.5324 8.70773 19.44 8.57083 19.3077C8.41885 19.1489 8.31648 18.9493 8.27625 18.7332L8.27479 18.7259L7.10375 12.9669L3.23625 11.5552C3.16741 11.5283 3.10817 11.4814 3.06609 11.4206C3.02401 11.3599 3.001 11.2879 3 11.214ZM9.06376 12.4587L10.455 15.9587L12.1929 12.9669L16.8119 8.86899C16.85 8.83281 16.8743 8.78439 16.8804 8.73215C16.8866 8.67992 16.9092 8.61688 16.8804 8.57285C16.85 8.53033 16.7706 8.51008 16.72 8.49677C16.6694 8.48346 16.6158 8.48822 16.5683 8.51024L9.06376 12.4587Z" stroke="white"/>
</svg>
