<svg width="24" height="24" viewBox="0 0 24 24" fill="none" xmlns="http://www.w3.org/2000/svg">
<path d="M18.5417 10.125C18.5417 10.9769 18.1248 12.1178 17.4272 13.4019C16.739 14.6685 15.8155 16.0074 14.883 17.2358C13.9519 18.4623 13.0197 19.5685 12.3197 20.3687C11.9953 20.7394 11.7212 21.0439 11.5208 21.2636C11.3204 21.0439 11.0464 20.7394 10.722 20.3687C10.0219 19.5685 9.08972 18.4623 8.15867 17.2358C7.22618 16.0074 6.30265 14.6685 5.61447 13.4019C4.91683 12.1178 4.5 10.9769 4.5 10.125C4.5 6.49124 7.61752 3.5 11.5208 3.5C15.4241 3.5 18.5417 6.49124 18.5417 10.125Z" stroke="white"/>
<circle cx="11.521" cy="9.72949" r="3.0625" stroke="white"/>
</svg>
