<svg width="24" height="24" viewBox="0 0 24 24" fill="none" xmlns="http://www.w3.org/2000/svg">
<path d="M11.7919 16.1461L13.1055 14.7952C13.4546 14.4381 13.9269 14.2376 14.4192 14.2376C14.9116 14.2376 15.3839 14.4381 15.7329 14.7952L17.0466 16.1461C17.3939 16.505 17.5888 16.9907 17.5888 17.497C17.5888 18.0034 17.3939 18.4891 17.0466 18.848L15.7329 20.1989C15.7329 20.1989 12.4487 23.5762 6.53712 17.4959C0.625545 11.4156 3.90975 8.03938 3.90975 8.03938L5.22344 6.68844C5.57245 6.33133 6.04477 6.13086 6.53712 6.13086C7.02947 6.13086 7.50178 6.33133 7.8508 6.68844L9.16449 8.03938C9.51175 8.39829 9.7067 8.884 9.7067 9.39031C9.7067 9.89662 9.51175 10.3823 9.16449 10.7412L7.8508 12.0922L11.7919 16.1461Z" stroke="white" stroke-linejoin="round"/>
<path d="M13.1807 3C13.1807 3 20.3442 3 20.3442 10.3667" stroke="white" stroke-linejoin="round"/>
<path d="M12.0786 6.40039C12.0786 6.40039 16.4869 6.40039 16.4869 10.9337" stroke="white" stroke-linejoin="round"/>
</svg>
