<svg width="25" height="25" viewBox="0 0 25 25" fill="none" xmlns="http://www.w3.org/2000/svg">
<g clip-path="url(#clip0_1030_243)">
<path d="M13.7852 0C15.1915 0.00375 15.9052 0.01125 16.5215 0.02875L16.764 0.0375C17.044 0.0475 17.3202 0.0599999 17.654 0.0749999C18.984 0.1375 19.8915 0.3475 20.6877 0.65625C21.5127 0.97375 22.2077 1.40375 22.9027 2.0975C23.5384 2.72237 24.0302 3.47824 24.344 4.3125C24.6527 5.10875 24.8627 6.01625 24.9252 7.3475C24.9402 7.68 24.9527 7.95625 24.9627 8.2375L24.9702 8.48C24.989 9.095 24.9965 9.80875 24.999 11.215L25.0002 12.1475V13.785C25.0033 14.6968 24.9937 15.6085 24.9715 16.52L24.964 16.7625C24.954 17.0437 24.9415 17.32 24.9265 17.6525C24.864 18.9837 24.6515 19.89 24.344 20.6875C24.0311 21.5222 23.5391 22.2783 22.9027 22.9025C22.2777 23.5379 21.5219 24.0297 20.6877 24.3438C19.8915 24.6525 18.984 24.8625 17.654 24.925C17.3574 24.939 17.0607 24.9515 16.764 24.9625L16.5215 24.97C15.9052 24.9875 15.1915 24.9963 13.7852 24.9988L12.8527 25H11.2165C10.3043 25.0031 9.39214 24.9936 8.48023 24.9712L8.23773 24.9638C7.941 24.9525 7.64432 24.9396 7.34773 24.925C6.01773 24.8625 5.11023 24.6525 4.31273 24.3438C3.47857 24.0305 2.723 23.5386 2.09898 22.9025C1.46279 22.2779 0.970513 21.5219 0.656483 20.6875C0.347733 19.8912 0.137733 18.9837 0.0752329 17.6525C0.0613064 17.3559 0.0488063 17.0592 0.0377329 16.7625L0.0314831 16.52C0.00844815 15.6085 -0.00196964 14.6968 0.00023297 13.785V11.215C-0.00325574 10.3033 0.0059119 9.3915 0.0277331 8.48L0.036483 8.2375C0.046483 7.95625 0.058983 7.68 0.073983 7.3475C0.136483 6.01625 0.346483 5.11 0.655233 4.3125C0.969125 3.47738 1.46238 2.72128 2.10023 2.0975C2.7241 1.46184 3.47916 0.969984 4.31273 0.65625C5.11023 0.3475 6.01648 0.1375 7.34773 0.0749999C7.68023 0.0599999 7.95773 0.0475 8.23773 0.0375L8.48023 0.0299999C9.39172 0.00779088 10.3035 -0.00179337 11.2152 0.00124991L13.7852 0ZM12.5002 6.25C10.8426 6.25 9.25292 6.90848 8.08082 8.08058C6.90871 9.25268 6.25023 10.8424 6.25023 12.5C6.25023 14.1576 6.90871 15.7473 8.08082 16.9194C9.25292 18.0915 10.8426 18.75 12.5002 18.75C14.1578 18.75 15.7475 18.0915 16.9197 16.9194C18.0918 15.7473 18.7502 14.1576 18.7502 12.5C18.7502 10.8424 18.0918 9.25268 16.9197 8.08058C15.7475 6.90848 14.1578 6.25 12.5002 6.25ZM12.5002 8.75C12.9927 8.74992 13.4803 8.84683 13.9353 9.03521C14.3903 9.22359 14.8038 9.49975 15.1521 9.84791C15.5003 10.1961 15.7766 10.6094 15.9652 11.0644C16.1537 11.5193 16.2508 12.0069 16.2509 12.4994C16.2509 12.9918 16.154 13.4795 15.9656 13.9345C15.7773 14.3895 15.5011 14.8029 15.153 15.1512C14.8048 15.4995 14.3914 15.7758 13.9365 15.9643C13.4816 16.1528 12.9939 16.2499 12.5015 16.25C11.5069 16.25 10.5531 15.8549 9.84983 15.1517C9.14657 14.4484 8.75148 13.4946 8.75148 12.5C8.75148 11.5054 9.14657 10.5516 9.84983 9.84835C10.5531 9.14509 11.5069 8.75 12.5015 8.75M19.064 4.375C18.6496 4.375 18.2522 4.53962 17.9591 4.83265C17.6661 5.12567 17.5015 5.5231 17.5015 5.9375C17.5015 6.3519 17.6661 6.74933 17.9591 7.04235C18.2522 7.33538 18.6496 7.5 19.064 7.5C19.4784 7.5 19.8758 7.33538 20.1688 7.04235C20.4619 6.74933 20.6265 6.3519 20.6265 5.9375C20.6265 5.5231 20.4619 5.12567 20.1688 4.83265C19.8758 4.53962 19.4784 4.375 19.064 4.375Z" fill="white"/>
</g>
<defs>
<clipPath id="clip0_1030_243">
<rect width="25" height="25" fill="white"/>
</clipPath>
</defs>
</svg>
