<svg width="25" height="25" viewBox="0 0 25 25" fill="none" xmlns="http://www.w3.org/2000/svg">
<g clip-path="url(#clip0_1654_150)">
<path d="M23.4011 10.2771C21.1729 10.2771 19.1073 9.56458 17.4219 8.35417V17.0885C17.4219 21.451 13.8729 24.999 9.51149 24.999C7.82607 24.999 6.26253 24.4677 4.97816 23.5656C2.93857 22.1333 1.60107 19.7646 1.60107 17.0885C1.60107 12.726 5.15003 9.17708 9.51253 9.17708C9.87503 9.17708 10.2292 9.20729 10.5782 9.25417V10.2719V13.6417C10.2407 13.5365 9.88441 13.475 9.51253 13.475C7.52087 13.475 5.90003 15.0958 5.90003 17.0885C5.90003 18.476 6.68753 19.6813 7.83753 20.2865C8.33857 20.55 8.90837 20.701 9.51357 20.701C11.4594 20.701 13.0469 19.1531 13.1198 17.224L13.1229 0H17.4209C17.4209 0.372917 17.4573 0.736458 17.5219 1.09063C17.825 2.72813 18.7969 4.13333 20.1438 5.01146C21.0813 5.62292 22.2 5.98021 23.4 5.98021L23.4011 10.2771Z" fill="white"/>
</g>
<defs>
<clipPath id="clip0_1654_150">
<rect width="25" height="25" fill="white"/>
</clipPath>
</defs>
</svg>
