<svg width="16" height="14" viewBox="0 0 16 14" fill="none" xmlns="http://www.w3.org/2000/svg">
<path d="M8 0C7.70014 -4.46832e-09 7.40321 0.0590626 7.12617 0.173816C6.84913 0.288569 6.59741 0.456765 6.38537 0.668801C6.17334 0.880837 6.00514 1.13256 5.89039 1.4096C5.77563 1.68664 5.71657 1.98356 5.71657 2.28343C5.71657 2.58329 5.77563 2.88022 5.89039 3.15726C6.00514 3.4343 6.17334 3.68602 6.38537 3.89806C6.59741 4.11009 6.84913 4.27829 7.12617 4.39304C7.40321 4.50779 7.70014 4.56686 8 4.56686C8.6056 4.56686 9.1864 4.32628 9.61463 3.89806C10.0429 3.46983 10.2834 2.88903 10.2834 2.28343C10.2834 1.67783 10.0429 1.09703 9.61463 0.668801C9.1864 0.240575 8.6056 0 8 0ZM13.1429 1.14057C12.6882 1.14057 12.2522 1.32118 11.9307 1.64267C11.6092 1.96417 11.4286 2.4002 11.4286 2.85486C11.4286 3.30951 11.6092 3.74555 11.9307 4.06704C12.2522 4.38853 12.6882 4.56914 13.1429 4.56914C13.5975 4.56914 14.0336 4.38853 14.355 4.06704C14.6765 3.74555 14.8571 3.30951 14.8571 2.85486C14.8571 2.4002 14.6765 1.96417 14.355 1.64267C14.0336 1.32118 13.5975 1.14057 13.1429 1.14057ZM2.85714 1.14057C2.40249 1.14057 1.96645 1.32118 1.64496 1.64267C1.32347 1.96417 1.14286 2.4002 1.14286 2.85486C1.14286 3.30951 1.32347 3.74555 1.64496 4.06704C1.96645 4.38853 2.40249 4.56914 2.85714 4.56914C3.3118 4.56914 3.74784 4.38853 4.06933 4.06704C4.39082 3.74555 4.57143 3.30951 4.57143 2.85486C4.57143 2.4002 4.39082 1.96417 4.06933 1.64267C3.74784 1.32118 3.3118 1.14057 2.85714 1.14057ZM4.57143 6.84686C4.57354 6.54514 4.69488 6.2565 4.90898 6.0439C5.12308 5.8313 5.41256 5.71199 5.71429 5.712H10.2857C10.5888 5.712 10.8795 5.83241 11.0938 6.04674C11.3082 6.26106 11.4286 6.55175 11.4286 6.85486V10.2834C11.4289 10.6431 11.3726 11.0007 11.2617 11.3429C11.0087 12.1185 10.4874 12.7786 9.79145 13.2045C9.09553 13.6304 8.27057 13.7942 7.46472 13.6666C6.65886 13.539 5.92489 13.1283 5.39461 12.5082C4.86432 11.8881 4.57246 11.0993 4.57143 10.2834V6.84686ZM3.42857 6.85486C3.42857 6.43771 3.53943 6.048 3.73486 5.712H1.14286C0.839753 5.712 0.549063 5.83241 0.334735 6.04674C0.120408 6.26106 1.58187e-07 6.55175 1.58187e-07 6.85486V9.712C-0.000155483 10.1798 0.114544 10.6404 0.334026 11.0535C0.553508 11.4666 0.871059 11.8195 1.25879 12.0812C1.64652 12.3429 2.09258 12.5054 2.55778 12.5544C3.02298 12.6034 3.4931 12.5374 3.92686 12.3623C3.59862 11.7181 3.42785 11.0053 3.42857 10.2823V6.85486ZM12.5714 6.85486V10.2834C12.5714 11.032 12.392 11.7383 12.0731 12.3623C12.5069 12.5374 12.977 12.6034 13.4422 12.5544C13.9074 12.5054 14.3535 12.3429 14.7412 12.0812C15.1289 11.8195 15.4465 11.4666 15.666 11.0535C15.8855 10.6404 16.0002 10.1798 16 9.712V6.85486C16 6.55175 15.8796 6.26106 15.6653 6.04674C15.4509 5.83241 15.1602 5.712 14.8571 5.712H12.2651C12.4594 6.048 12.5714 6.43771 12.5714 6.85486Z" fill="white"/>
</svg>
