<svg width="16" height="17" viewBox="0 0 16 17" fill="none" xmlns="http://www.w3.org/2000/svg">
<path d="M2.67317 4.92529L1.14111 9.19543H4.51184L2.67317 4.92529Z" fill="white"/>
<path d="M8.00007 4.58615C8.29032 4.58615 8.52648 4.35221 8.52648 4.06466C8.52648 3.77727 8.29032 3.54346 8.00007 3.54346C7.70979 3.54346 7.47363 3.77727 7.47363 4.06466C7.47367 4.35221 7.70983 4.58615 8.00007 4.58615Z" fill="white"/>
<path d="M11.4868 8.13301H14.8579L13.3254 3.86279L11.4868 8.13301Z" fill="white"/>
<path d="M5.67141 9.56738H4.79995C4.79702 9.56742 4.79412 9.56742 4.79119 9.56738H0.882438C0.880693 9.56742 0.878988 9.56778 0.877243 9.56778C0.875697 9.56778 0.87415 9.56742 0.872604 9.56738H0C0.0933913 11.1155 1.34345 12.3899 2.81276 12.3899C4.30607 12.3899 5.57651 11.1155 5.67141 9.56738Z" fill="white"/>
<path d="M11.5616 14.8848H4.43893H2.42707L1.86621 16.2628H14.1344L13.5734 14.8848H11.5616Z" fill="white"/>
<path d="M15.123 8.50439L15.1225 8.50443L15.1221 8.50439H11.2039H11.2035H10.3735C10.464 10.0725 11.6911 11.3187 13.1866 11.3187C14.682 11.3187 15.9091 10.0725 15.9996 8.50439H15.123Z" fill="white"/>
<path d="M7.10519 13.5894L7.1161 13.4644H4.62451V14.5129H11.3756V13.4644H9.23348L9.2474 13.5706L9.25271 13.6113C9.25969 13.6643 9.24347 13.7178 9.20818 13.758C9.17288 13.7981 9.122 13.8213 9.06855 13.8213H7.28773C7.23566 13.8213 7.18597 13.7994 7.15076 13.7609C7.13497 13.7437 7.12331 13.7236 7.11506 13.7023C7.11411 13.6998 7.11265 13.6977 7.11177 13.6952C7.11035 13.691 7.10995 13.6865 7.1088 13.6822C7.1067 13.6742 7.10428 13.6662 7.10325 13.6579C7.1021 13.6486 7.10245 13.6389 7.10277 13.6294C7.10285 13.626 7.10229 13.6227 7.10261 13.6193V13.6193L7.10519 13.5894Z" fill="white"/>
<path d="M9.95877 12.7677L8.10608 6.57227L6.41406 12.9173H10.0096L9.95898 12.7683L9.95877 12.7677Z" fill="white"/>
<path d="M1.94546 4.66894C1.95149 4.66894 1.95764 4.66866 1.96378 4.66807L2.63255 4.60267C2.64092 4.60378 2.64921 4.60521 2.65793 4.60521C2.67927 4.60521 2.69945 4.60085 2.71853 4.59427L6.04437 4.26892C6.14803 5.25308 6.99259 6.02293 8.01585 6.02293C9.10891 6.02293 9.99817 5.1445 9.99817 4.06481C9.99817 4.00096 9.99484 3.93795 9.98877 3.87561L13.2004 3.56101L14.4001 3.43379C14.5022 3.42301 14.5761 3.33148 14.5653 3.22944C14.5545 3.12741 14.4629 3.05317 14.3609 3.06427L13.5277 3.15263V1.93807C13.5277 1.83544 13.4445 1.75224 13.3419 1.75224C13.2393 1.75224 13.1561 1.8354 13.1561 1.93807V3.19205L9.91639 3.50934C9.68885 2.75119 9.00842 2.1839 8.1859 2.1145V0.874796C8.1859 0.772164 8.10266 0.688965 8.00007 0.688965C7.89748 0.688965 7.81424 0.772125 7.81424 0.874796V2.11684C6.87172 2.2113 6.12277 2.96081 6.04139 3.89583L2.84368 4.20857V3.00158C2.84368 2.89895 2.76048 2.81575 2.65785 2.81575C2.55526 2.81575 2.47202 2.89895 2.47202 3.00158V4.24493L1.9275 4.29819C1.82538 4.30818 1.75067 4.39908 1.76066 4.50119C1.77014 4.5972 1.851 4.66894 1.94546 4.66894ZM8.00011 3.17202C8.4953 3.17202 8.89813 3.57255 8.89813 4.06485C8.89813 4.55731 8.4953 4.95796 8.00011 4.95796C7.50492 4.95796 7.10205 4.55731 7.10205 4.06485C7.10205 3.57251 7.50496 3.17202 8.00011 3.17202Z" fill="white"/>
</svg>
