<svg width="24" height="34" viewBox="0 0 24 34" fill="none" xmlns="http://www.w3.org/2000/svg">
<path d="M10.4961 32C10.4961 32.8284 11.1677 33.5 11.9961 33.5C12.8245 33.5 13.4961 32.8284 13.4961 32H10.4961ZM13.0568 0.789713C12.471 0.203926 11.5212 0.203926 10.9354 0.789713L1.38949 10.3357C0.803705 10.9214 0.803705 11.8712 1.38949 12.457C1.97528 13.0428 2.92503 13.0428 3.51081 12.457L11.9961 3.97169L20.4814 12.457C21.0672 13.0428 22.0169 13.0428 22.6027 12.457C23.1885 11.8712 23.1885 10.9214 22.6027 10.3357L13.0568 0.789713ZM13.4961 32L13.4961 1.85037H10.4961L10.4961 32H13.4961Z" fill="white"/>
</svg>
