<svg width="16" height="17" viewBox="0 0 16 17" fill="none" xmlns="http://www.w3.org/2000/svg">
<path d="M2.20269 1.06494C2.01051 1.06494 1.82619 1.14129 1.6903 1.27718C1.5544 1.41308 1.47806 1.59739 1.47806 1.78958V3.23885H2.92733V2.51422H13.0723V14.1084H2.92733V13.3838H1.47806V14.8331C1.47806 15.0252 1.5544 15.2096 1.6903 15.3455C1.82619 15.4813 2.01051 15.5577 2.20269 15.5577H13.7969C13.9891 15.5577 14.1734 15.4813 14.3093 15.3455C14.4452 15.2096 14.5215 15.0252 14.5215 14.8331V1.78958C14.5215 1.59739 14.4452 1.41308 14.3093 1.27718C14.1734 1.14129 13.9891 1.06494 13.7969 1.06494H2.20269ZM3.65197 6.1374V4.68813H0.753418V6.1374H3.65197ZM3.65197 7.58668V9.03596H0.753418V7.58668H3.65197ZM3.65197 11.9345V10.4852H0.753418V11.9345H3.65197Z" fill="white"/>
<line x1="6.26074" y1="4.87646" x2="11.1303" y2="4.87646" stroke="white" stroke-width="2"/>
<line x1="6.26074" y1="7.65918" x2="11.1303" y2="7.65918" stroke="white" stroke-width="2"/>
<line x1="6.26074" y1="10.4414" x2="11.1303" y2="10.4414" stroke="white" stroke-width="2"/>
</svg>
