<svg width="44" height="44" viewBox="0 0 44 44" fill="none" xmlns="http://www.w3.org/2000/svg">
<path d="M11.5773 40.0526L1.1547 22L11.5773 3.94744H32.4226L42.8453 22L32.4226 40.0526H11.5773Z" fill="url(#paint0_linear_3781_304)" stroke="white" stroke-width="2"/>
<path d="M25.8417 23.8008C25.8417 24.5008 26.0408 24.78 26.5617 24.78C27.7225 24.78 28.4617 23.3008 28.4617 20.8408C28.4617 17.0808 25.7217 15.2808 22.3008 15.2808C18.7817 15.2808 15.5808 17.6408 15.5808 22.1008C15.5808 26.3608 18.3808 28.6808 22.6808 28.6808C24.1408 28.6808 25.1208 28.5208 26.62 28.0208L26.9417 29.36C25.4617 29.8408 23.88 29.98 22.6608 29.98C17.0208 29.98 14 26.88 14 22.1C14 17.28 17.5008 14 22.3208 14C27.3408 14 30 17 30 20.68C30 23.8 29.0208 26.18 25.9408 26.18C24.54 26.18 23.6208 25.62 23.5008 24.3792C23.1408 25.7592 22.1808 26.18 20.88 26.18C19.14 26.18 17.68 24.8392 17.68 22.14C17.68 19.42 18.9608 17.74 21.2608 17.74C22.4808 17.74 23.2408 18.22 23.5792 18.98L24.16 17.92H25.84V23.8008H25.8417ZM23.3825 21.1608C23.3825 20.0617 22.5617 19.6008 21.8817 19.6008C21.1417 19.6008 20.3225 20.2 20.3225 21.9608C20.3225 23.3608 20.9425 24.1408 21.8817 24.1408C22.5417 24.1408 23.3825 23.7208 23.3825 22.5608V21.1608Z" fill="white"/>
<defs>
<linearGradient id="paint0_linear_3781_304" x1="22" y1="0" x2="22" y2="44" gradientUnits="userSpaceOnUse">
<stop stop-color="#EC6013"/>
<stop offset="1" stop-color="#86370B"/>
</linearGradient>
</defs>
</svg>
