<svg width="14" height="14" viewBox="0 0 14 14" fill="none" xmlns="http://www.w3.org/2000/svg">
<g clip-path="url(#clip0_3763_203)">
<path d="M13.4952 7.22044L7.49525 0.553773C7.24258 0.27244 6.75725 0.27244 6.50458 0.553773L0.504581 7.22044C0.418368 7.31626 0.361779 7.43501 0.341664 7.56232C0.32155 7.68963 0.338773 7.82005 0.391248 7.93777C0.497914 8.17844 0.736581 8.33311 0.999914 8.33311H2.33325V12.9998C2.33325 13.1766 2.40349 13.3462 2.52851 13.4712C2.65353 13.5962 2.8231 13.6664 2.99991 13.6664H4.99991C5.17673 13.6664 5.34629 13.5962 5.47132 13.4712C5.59634 13.3462 5.66658 13.1766 5.66658 12.9998V10.3331H8.33325V12.9998C8.33325 13.1766 8.40349 13.3462 8.52851 13.4712C8.65353 13.5962 8.8231 13.6664 8.99991 13.6664H10.9999C11.1767 13.6664 11.3463 13.5962 11.4713 13.4712C11.5963 13.3462 11.6666 13.1766 11.6666 12.9998V8.33311H12.9999C13.129 8.33366 13.2555 8.29663 13.3639 8.22654C13.4724 8.15645 13.5581 8.05632 13.6106 7.93837C13.6631 7.82042 13.6801 7.68973 13.6597 7.56226C13.6392 7.43478 13.5821 7.31601 13.4952 7.22044Z" fill="white"/>
</g>
<defs>
<clipPath id="clip0_3763_203">
<rect width="14" height="14" fill="white"/>
</clipPath>
</defs>
</svg>
