<svg width="32" height="32" viewBox="0 0 32 32" fill="none" xmlns="http://www.w3.org/2000/svg">
<path d="M31.5 15.9998C31.5 13.9695 31.0956 12.0288 30.3611 10.2575L28.0732 10.9989C26.7489 7.80538 24.1945 5.25093 21.0009 3.92664L21.7423 1.63897C19.971 0.904439 18.0303 0.5 16 0.5C13.9697 0.5 12.029 0.904439 10.2577 1.63897L10.9991 3.92664C7.80557 5.25093 5.25112 7.80538 3.92683 10.9989L1.63897 10.2575C0.904439 12.0288 0.5 13.9695 0.5 15.9998C0.5 18.0301 0.904439 19.9708 1.63897 21.7421L3.92683 21.0007C5.25112 24.1943 7.80557 26.7487 10.9991 28.073L10.2577 30.5C12.029 31.2345 13.9697 31.6389 16 31.6389C18.0303 31.6389 19.971 31.2345 21.7423 30.5L21.0009 28.073C24.1945 26.7487 26.7489 24.1943 28.0732 21.0007L30.3611 21.7421C31.0956 19.9708 31.5 18.0301 31.5 15.9998Z" fill="#464646"/>
</svg>
