<svg width="60" height="60" viewBox="0 0 60 60" fill="none" xmlns="http://www.w3.org/2000/svg">
<path d="M15.5773 54.9808L1.1547 30L15.5773 5.01924H44.4226L58.8453 30L44.4226 54.9808H15.5773Z" fill="#4F4F4F" stroke="white" stroke-width="2"/>
<path d="M34.3691 26.0888C32.0484 26.21 30.0304 26.9135 28.392 28.5029C26.7367 30.1087 25.9811 32.0764 26.1876 34.5157C25.2806 34.4033 24.4544 34.2797 23.6235 34.2097C23.3365 34.1856 22.9959 34.2199 22.7529 34.357C21.9461 34.8123 21.1726 35.3263 20.2558 35.8994C20.4241 35.1386 20.5329 34.4723 20.7257 33.8315C20.8675 33.3605 20.8018 33.0984 20.3679 32.7917C17.5821 30.8248 16.4078 27.8813 17.2866 24.8509C18.0996 22.0474 20.0963 20.3472 22.8093 19.4609C26.5123 18.2514 30.6738 19.4852 32.9254 22.4251C33.7387 23.4871 34.2374 24.6791 34.3691 26.0888ZM23.6885 25.1445C23.7099 24.5902 23.2296 24.0909 22.6591 24.0742C22.075 24.057 21.5946 24.5034 21.5776 25.0789C21.5603 25.6622 22.0064 26.1297 22.5948 26.1446C23.178 26.1594 23.6669 25.7125 23.6885 25.1445ZM29.261 24.0738C28.6884 24.0844 28.2046 24.5721 28.2148 25.1285C28.2252 25.7053 28.6999 26.1565 29.2886 26.1495C29.8789 26.1424 30.3267 25.6863 30.3211 25.0974C30.3162 24.5192 29.8437 24.0632 29.261 24.0738Z" fill="white"/>
<path d="M39.583 40.5566C38.8482 40.2294 38.174 39.7385 37.4564 39.6635C36.7415 39.5889 35.9899 40.0013 35.242 40.0778C32.9636 40.3109 30.9225 39.6759 29.2395 38.1195C26.0385 35.1588 26.4959 30.6192 30.1993 28.193C33.4907 26.0366 38.3177 26.7555 40.6383 29.7475C42.6634 32.3583 42.4254 35.8241 39.9532 38.0174C39.2378 38.6522 38.9803 39.1746 39.4394 40.0114C39.5241 40.1659 39.5338 40.3615 39.583 40.5566ZM31.2182 32.4578C31.686 32.4583 32.0712 32.0922 32.089 31.6301C32.1076 31.1409 31.7142 30.7306 31.2243 30.7286C30.7394 30.7264 30.3331 31.1424 30.3499 31.6243C30.3658 32.0848 30.7537 32.4572 31.2182 32.4578ZM36.6105 30.7305C36.1566 30.7273 35.7709 31.0989 35.7524 31.5575C35.7328 32.048 36.1139 32.4507 36.5993 32.452C37.0688 32.4535 37.4397 32.0985 37.4567 31.6314C37.475 31.1398 37.0936 30.7338 36.6105 30.7305Z" fill="white"/>
</svg>
