<svg width="16" height="16" viewBox="0 0 16 16" fill="none" xmlns="http://www.w3.org/2000/svg">
<g clip-path="url(#clip0_3599_191)">
<path d="M0.333523 4.17982C0.332851 4.12654 0.344963 4.07387 0.368843 4.02624C0.392724 3.9786 0.427677 3.93738 0.470772 3.90604C0.513867 3.8747 0.563848 3.85414 0.616525 3.8461C0.669202 3.83806 0.723039 3.84277 0.773523 3.85982L6.77352 5.85982C6.83919 5.882 6.89631 5.9241 6.93694 5.98026C6.97757 6.03642 6.99967 6.10384 7.00019 6.17316V15.1798C6.9998 15.2325 6.98691 15.2844 6.96258 15.3312C6.93825 15.378 6.90317 15.4183 6.86022 15.4489C6.81728 15.4795 6.76769 15.4994 6.71553 15.5071C6.66338 15.5148 6.61014 15.51 6.56019 15.4932L0.600189 13.4198C0.53452 13.3976 0.477398 13.3555 0.436772 13.2994C0.396146 13.2432 0.374037 13.1758 0.373523 13.1065L0.333523 4.17982ZM9.00019 15.2132C9.00021 15.2667 9.01312 15.3194 9.03782 15.3669C9.06252 15.4143 9.09829 15.4552 9.1421 15.4859C9.18591 15.5166 9.23647 15.5364 9.28952 15.5434C9.34256 15.5505 9.39653 15.5447 9.44686 15.5265L15.4469 13.4265C15.5113 13.4032 15.567 13.3606 15.6063 13.3046C15.6457 13.2485 15.6668 13.1817 15.6669 13.1132V4.23315C15.6672 4.18065 15.6551 4.12881 15.6316 4.08186C15.6081 4.03491 15.5738 3.99418 15.5315 3.96299C15.4893 3.9318 15.4403 3.91102 15.3885 3.90236C15.3367 3.8937 15.2836 3.8974 15.2335 3.91316L9.23352 5.81982C9.16553 5.8412 9.10618 5.88382 9.06418 5.94141C9.02219 5.99901 8.99976 6.06854 9.00019 6.13982V15.2132Z" fill="white"/>
<path d="M7.89986 4.34648C7.95873 4.36299 8.021 4.36299 8.07986 4.34648L13.8665 2.75981C13.9549 2.75981 14.0397 2.7247 14.1022 2.66218C14.1647 2.59967 14.1999 2.51489 14.1999 2.42648C14.1999 2.33808 14.1647 2.25329 14.1022 2.19078C14.0397 2.12827 13.9549 2.09315 13.8665 2.09315L8.07986 0.466481C8.021 0.449975 7.95873 0.449975 7.89986 0.466481L2.1932 1.99981C2.10479 1.99981 2.02001 2.03493 1.95749 2.09745C1.89498 2.15996 1.85986 2.24474 1.85986 2.33315C1.85986 2.42155 1.89498 2.50634 1.95749 2.56885C2.02001 2.63136 2.10479 2.66648 2.1932 2.66648L7.89986 4.34648Z" fill="white"/>
</g>
<defs>
<clipPath id="clip0_3599_191">
<rect width="16" height="16" fill="white"/>
</clipPath>
</defs>
</svg>
