<svg width="17" height="16" viewBox="0 0 17 16" fill="none" xmlns="http://www.w3.org/2000/svg">
<path d="M5.52199 4.83237L0.659546 5.53735L0.573424 5.55487C0.443052 5.58948 0.324201 5.65808 0.229007 5.75364C0.133814 5.84921 0.0656896 5.96833 0.0315905 6.09883C-0.00250859 6.22934 -0.00136047 6.36656 0.0349176 6.49648C0.0711957 6.62639 0.141304 6.74436 0.238083 6.83832L3.76069 10.2672L2.92996 15.1106L2.92005 15.1944C2.91207 15.3292 2.94007 15.4638 3.00118 15.5842C3.06229 15.7047 3.15432 15.8068 3.26784 15.88C3.38136 15.9532 3.5123 15.9949 3.64724 16.0008C3.78219 16.0068 3.91629 15.9768 4.03582 15.9139L8.38459 13.6275L12.7234 15.9139L12.7997 15.9489C12.9255 15.9985 13.0622 16.0137 13.1958 15.9929C13.3294 15.9722 13.4551 15.9163 13.56 15.831C13.6648 15.7457 13.7451 15.634 13.7926 15.5074C13.8401 15.3808 13.853 15.2438 13.8301 15.1106L12.9986 10.2672L16.5227 6.83755L16.5822 6.77277C16.6671 6.66818 16.7227 6.54295 16.7435 6.40984C16.7643 6.27672 16.7494 6.14049 16.7004 6.015C16.6513 5.88952 16.5699 5.77927 16.4644 5.6955C16.3589 5.61173 16.2331 5.55742 16.0997 5.53811L11.2373 4.83237L9.06365 0.427203C9.00076 0.299571 8.90339 0.192095 8.78257 0.11694C8.66175 0.0417851 8.5223 0.00195313 8.38001 0.00195312C8.23773 0.00195313 8.09828 0.0417851 7.97746 0.11694C7.85664 0.192095 7.75927 0.299571 7.69637 0.427203L5.52199 4.83237Z" fill="#EC6013"/>
</svg>
