<svg width="44" height="44" viewBox="0 0 44 44" fill="none" xmlns="http://www.w3.org/2000/svg">
<path d="M11.5773 40.0526L1.1547 22L11.5773 3.94744H32.4226L42.8453 22L32.4226 40.0526H11.5773Z" fill="url(#paint0_linear_3781_291)" stroke="white" stroke-width="2"/>
<path d="M24.88 16.4H19.6V14H18V28.88C18 29.496 18.5032 30 19.1184 30H24.88C25.4952 30 26 29.4952 26 28.88V17.5208C26 16.9032 25.4952 16.4 24.88 16.4ZM20.4 26C19.8472 26 19.4 25.6424 19.4 25.2C19.4 24.7576 19.8472 24.4 20.4 24.4C20.9528 24.4 21.4 24.7576 21.4 25.2C21.4 25.6424 20.9528 26 20.4 26ZM21.4 27.6C21.4 28.0424 20.9528 28.4 20.4 28.4C19.8472 28.4 19.4 28.0424 19.4 27.6C19.4 27.1576 19.8472 26.8 20.4 26.8C20.9528 26.8 21.4 27.1576 21.4 27.6ZM19.6 22.8V18H24.4V22.8H19.6ZM23.6 26C23.0472 26 22.6 25.6424 22.6 25.2C22.6 24.7576 23.0472 24.4 23.6 24.4C24.1528 24.4 24.6 24.7576 24.6 25.2C24.6 25.6424 24.1528 26 23.6 26ZM24.6 27.6C24.6 28.0424 24.1528 28.4 23.6 28.4C23.0472 28.4 22.6 28.0424 22.6 27.6C22.6 27.1576 23.0472 26.8 23.6 26.8C24.1528 26.8 24.6 27.1576 24.6 27.6Z" fill="white"/>
<defs>
<linearGradient id="paint0_linear_3781_291" x1="22" y1="0" x2="22" y2="44" gradientUnits="userSpaceOnUse">
<stop stop-color="#EC6013"/>
<stop offset="1" stop-color="#86370B"/>
</linearGradient>
</defs>
</svg>
