<svg width="44" height="44" viewBox="0 0 44 44" fill="none" xmlns="http://www.w3.org/2000/svg">
<path d="M11.5773 40.0526L1.1547 22L11.5773 3.94744H32.4226L42.8453 22L32.4226 40.0526H11.5773Z" fill="url(#paint0_linear_3781_301)" stroke="white" stroke-width="2"/>
<path d="M29.712 16.5076C29.2295 18.4797 27.3992 27.4145 27.3992 27.4145C27.0414 28.8992 27.0414 28.5489 26.1231 28.0132L22.5993 25.4165L20.8989 27.0518C20.7107 27.24 20.1907 27.6472 20.1907 27.3973C20.1907 27.1475 20.4439 23.8085 20.4439 23.8085L26.975 17.9069C27.259 17.6537 26.9134 17.5135 26.5337 17.7666L18.4596 22.8506L14.9836 21.7626C14.8201 21.6976 14.6132 21.6212 14.4482 21.5317C13.9357 21.2897 13.7287 21.1919 14.563 20.8486C14.6458 20.8145 14.9363 20.7008 15.141 20.6439L28.7369 15.406C30.1944 14.8859 30.1944 14.5356 29.712 16.5076Z" fill="white"/>
<defs>
<linearGradient id="paint0_linear_3781_301" x1="22" y1="0" x2="22" y2="44" gradientUnits="userSpaceOnUse">
<stop stop-color="#EC6013"/>
<stop offset="1" stop-color="#86370B"/>
</linearGradient>
</defs>
</svg>
