<svg width="44" height="44" viewBox="0 0 44 44" fill="none" xmlns="http://www.w3.org/2000/svg">
<path d="M11.5773 40.0526L1.1547 22L11.5773 3.94744H32.4226L42.8453 22L32.4226 40.0526H11.5773Z" fill="url(#paint0_linear_3781_295)" stroke="white" stroke-width="2"/>
<path d="M27.9999 21.9382C28.0204 19.554 25.911 17.3685 23.298 17.066C23.2415 17.0592 23.1853 17.0509 23.1293 17.0412C22.9979 17.017 22.8647 17.0032 22.731 17C22.1949 17 22.0519 17.3627 22.0142 17.5779C21.9773 17.7881 22.0125 17.9654 22.1178 18.1031C22.2951 18.3347 22.6077 18.3759 22.8586 18.4089C22.9314 18.4188 23.0008 18.4279 23.059 18.4402C25.4074 18.9456 26.1979 19.7395 26.5841 21.981C26.5936 22.0354 26.5979 22.1031 26.603 22.1748C26.6201 22.4427 26.6544 23 27.277 23C27.3284 23 27.3849 22.9959 27.4432 22.9876C28.0221 22.9027 28.0041 22.3932 27.9956 22.1484C27.993 22.0791 27.9904 22.014 27.9973 21.9703C27.9986 21.9594 27.9992 21.9484 27.999 21.9373L27.9999 21.9382Z" fill="white"/>
<path d="M22.7691 16.2763C22.8347 16.281 22.8956 16.2857 22.9469 16.2927C26.5542 16.8333 28.2133 18.4974 28.6723 22.0377C28.6803 22.0978 28.6819 22.1711 28.6827 22.2483C28.6875 22.5253 28.6972 23.101 29.3316 23.1127H29.3508C29.5503 23.1127 29.7081 23.0542 29.8219 22.9388C30.019 22.7383 30.0061 22.4395 29.9941 22.1992C29.9917 22.1399 29.9893 22.0845 29.9893 22.0353C30.0358 18.4155 26.817 15.1318 23.1031 15.0101C23.0871 15.0101 23.0727 15.0101 23.0582 15.0125C23.0436 15.0143 23.0289 15.0151 23.0142 15.0148C22.9765 15.0148 22.9317 15.0117 22.8828 15.0086C22.8251 15.0047 22.7586 15 22.6905 15C22.0993 15 21.9872 15.4096 21.9728 15.6538C21.9399 16.2178 22.4999 16.2576 22.7691 16.2763ZM28.4985 26.6132C28.4211 26.5559 28.3444 26.4977 28.2686 26.4385C27.8744 26.1296 27.4555 25.8456 27.0509 25.5702L26.7986 25.3986C26.2794 25.0436 25.8132 24.8712 25.3726 24.8712C24.7782 24.8712 24.2607 25.191 23.8329 25.8206C23.6438 26.0999 23.4139 26.2357 23.1311 26.2357C22.9347 26.229 22.742 26.1819 22.5656 26.0976C20.8913 25.358 19.6944 24.2237 19.0103 22.7266C18.6795 22.0026 18.7868 21.5298 19.3684 21.1444C19.6993 20.926 20.3137 20.5195 20.2712 19.7402C20.2216 18.8563 18.218 16.1952 17.3737 15.8933C17.0127 15.765 16.6171 15.7639 16.2554 15.8901C15.2852 16.2077 14.5899 16.7662 14.2414 17.5035C13.9049 18.2165 13.921 19.0536 14.2847 19.9243C15.3381 22.4418 16.8185 24.6371 18.6859 26.4486C20.5132 28.2219 22.7594 29.6738 25.3614 30.7652C25.5961 30.8635 25.842 30.9173 26.0223 30.9563C26.0832 30.9696 26.1361 30.9813 26.1745 30.9914C26.1957 30.997 26.2175 30.9999 26.2394 31H26.2602C27.4843 31 28.9543 29.9109 29.4053 28.6697C29.8011 27.5822 29.0785 27.0447 28.4985 26.6132ZM23.3106 19.1527C23.1015 19.1574 22.6649 19.1683 22.5119 19.6005C22.4398 19.8034 22.4486 19.9781 22.5375 20.1224C22.6673 20.3331 22.9165 20.3986 23.1424 20.4345C23.9635 20.5624 24.3857 21.004 24.4698 21.8255C24.509 22.2078 24.7742 22.4754 25.1131 22.4754C25.1388 22.4753 25.1644 22.4738 25.19 22.4707C25.5985 22.4239 25.7964 22.1313 25.7788 21.6016C25.7852 21.0492 25.4888 20.422 24.9833 19.9227C24.477 19.4219 23.8665 19.1395 23.3106 19.1527Z" fill="white"/>
<defs>
<linearGradient id="paint0_linear_3781_295" x1="22" y1="0" x2="22" y2="44" gradientUnits="userSpaceOnUse">
<stop stop-color="#EC6013"/>
<stop offset="1" stop-color="#86370B"/>
</linearGradient>
</defs>
</svg>
